<svg width="259" height="63" viewBox="0 0 259 63" fill="none" xmlns="http://www.w3.org/2000/svg">
<path d="M0.29248 1.00819C4.73272 0.87198 9.17386 0.765674 13.6127 0.922782C15.4636 0.98829 17.3345 1.19885 19.1122 2.60011C21.7659 4.69182 23.6374 8.30626 24.0358 14.1184C24.4966 20.8409 23.5354 26.5429 20.3414 30.034C22.3934 31.7603 24.2654 33.7973 25.1487 38.1021C26.5424 44.8934 25.92 54.2424 22.1952 58.4543C20.563 60.2999 18.8459 61.5063 17.0063 61.5759C11.4807 61.7851 5.95339 61.8101 0.359615 61.907C0.29248 41.6528 0.29248 21.3986 0.29248 1.00819ZM13.9695 36.9117C11.6165 36.9117 9.26361 36.9117 6.92474 36.9117C6.92474 41.3673 6.92474 45.6504 6.92474 49.9906C9.47097 49.9906 11.9753 50.0636 14.4777 49.9508C15.3466 49.9116 16.2304 49.5589 17.072 49.0888C18.3718 48.3628 19.2101 45.9261 19.1942 43.2979C19.1794 40.8665 18.3235 38.4758 17.0618 37.8199C16.103 37.3215 15.0966 37.2006 13.9695 36.9117ZM16.5409 23.5553C17.973 20.7849 17.7419 16.1073 16.1536 14.3919C15.4844 13.6691 14.6751 13.1885 13.9206 13.137C11.5922 12.9781 9.25956 13.079 6.91564 13.079C6.91564 17.3043 6.91564 21.3929 6.91564 25.5766C8.73369 25.5766 10.5185 25.5539 12.3032 25.5837C13.7651 25.6082 15.1815 25.2776 16.5409 23.5553Z" fill="#E3E4E6"/>
<path d="M259 61.77C251.388 61.9062 243.775 61.9062 236.122 61.9062C236.122 41.5759 236.122 21.3085 236.122 0.956116C243.617 0.956116 251.123 0.956116 258.672 0.956116C258.672 4.92525 258.672 8.91808 258.672 13.0282C253.371 13.0282 248.061 13.0282 242.71 13.0282C242.71 17.1364 242.71 21.1292 242.71 25.2394C247.393 25.2394 252.082 25.2394 256.811 25.2394C256.811 29.2509 256.811 33.1468 256.811 37.16C252.126 37.16 247.436 37.16 242.708 37.16C242.708 41.3655 242.708 45.455 242.708 49.6992C248.094 49.6992 253.48 49.6992 258.933 49.6992C259 53.6774 259 57.6556 259 61.77Z" fill="#E3E4E6"/>
<path d="M102.934 0.000244141C103.76 0.290686 104.519 0.593158 105.279 0.869326C107.606 1.71422 109.631 3.84793 111.452 6.83744C111.928 7.61792 112.384 8.44733 112.927 9.38943C111.474 12.8036 110.051 16.1475 108.662 19.4109C107.711 18.0513 106.798 16.6867 105.855 15.4126C104.681 13.8256 103.361 13.1701 101.968 12.7356C99.8907 12.0879 98.0584 13.2431 96.3642 15.4078C94.2535 18.1045 93.074 22.2572 92.5713 27.081C92.0824 31.7736 92.3419 36.4499 93.4205 40.7684C94.7419 46.0589 96.884 49.4238 99.7831 50.2151C102.632 50.9928 105.224 49.3413 107.437 45.5013C107.577 45.2588 107.748 45.0919 107.891 44.8567C108.199 44.3517 108.569 43.2999 108.785 43.4205C109.192 43.6473 109.534 44.4937 109.856 45.1743C110.921 47.4272 111.965 49.7209 113.051 52.0705C110.937 56.8009 108.479 60.5 105.343 61.8596C103.822 62.5188 102.245 63.0541 100.7 62.9959C96.9447 62.8546 93.5131 60.6935 90.6005 55.5472C87.9608 50.8832 86.3526 45.1104 85.6685 38.2136C85.035 31.828 85.226 25.4873 86.4158 19.4806C88.0145 11.4096 90.7817 5.49759 94.8597 2.29181C96.2782 1.17672 97.718 0.424247 99.2543 0.115803C100.473 0.00024473 101.67 0.000244722 102.934 0.000244141Z" fill="#E3E4E6"/>
<path d="M229.489 0.871649C230.035 0.871649 230.509 0.871649 231.026 0.871649C231.026 21.1967 231.026 41.4609 231.026 61.9067C229.647 61.9067 228.244 61.7525 226.854 61.9555C225.744 62.1176 225.025 61.4397 224.362 59.5679C222.398 54.024 220.342 48.6133 218.302 43.1822C216.652 38.7898 214.967 34.451 213.307 30.073C212.671 28.3947 212.064 26.6714 211.44 24.9743C211.337 24.6949 211.215 24.445 211.026 24.0057C211.026 36.7527 211.026 49.2286 211.026 61.8055C208.793 61.8055 206.586 61.8055 204.33 61.8055C204.33 41.6123 204.33 21.348 204.33 0.954713C204.465 0.932069 204.644 0.876403 204.823 0.875636C206.423 0.868796 208.025 1.00341 209.619 0.813192C210.359 0.724921 210.743 1.4359 211.106 2.40105C213.534 8.84015 215.953 15.2915 218.366 21.7531C220.258 26.8207 222.136 31.9094 224.024 36.9843C224.062 37.0869 224.135 37.1352 224.283 37.3262C224.283 25.1376 224.283 13.0895 224.283 0.871649C226.049 0.871649 227.734 0.871649 229.489 0.871649Z" fill="#E3E4E6"/>
<path d="M123.056 47.0904C123.056 52.0713 123.056 56.9078 123.056 61.8259C120.816 61.8259 118.609 61.8259 116.363 61.8259C116.363 41.5705 116.363 21.3036 116.363 0.95471C118.563 0.95471 120.769 0.95471 123.053 0.95471C123.053 9.5198 123.053 18.0978 123.053 27.0111C123.329 26.5364 123.493 26.3048 123.627 26.0143C125.631 21.6667 127.634 17.3171 129.631 12.9554C130.691 10.6385 131.737 8.2935 132.793 5.96843C133.466 4.48605 134.135 2.99452 134.832 1.5585C134.995 1.22298 135.261 0.905937 135.481 0.901965C138.008 0.856373 140.534 0.872924 143.136 0.872924C143.067 1.17984 143.045 1.40933 142.978 1.55207C141.884 3.89143 140.788 6.22767 139.684 8.54878C138.148 11.7767 136.604 14.9872 135.068 18.2134C133.946 20.5689 132.827 22.9298 131.717 25.3069C131.478 25.8178 131.281 26.4087 131.048 27.0053C135.264 38.5648 139.47 50.0993 143.742 61.8121C143.494 61.8496 143.302 61.9036 143.11 61.9041C140.842 61.91 138.574 61.8637 136.307 61.942C135.802 61.9594 135.491 61.6504 135.213 60.8672C132.476 53.1631 129.732 45.4694 126.989 37.7749C126.815 37.287 126.629 36.817 126.414 36.2477C125.341 38.5555 124.278 40.7576 123.276 43.0673C123.082 43.5149 123.099 44.3776 123.063 45.0585C123.029 45.6808 123.056 46.3163 123.056 47.0904Z" fill="#E3E4E6"/>
<path d="M197.226 41.3819C197.851 44.4058 198.438 47.339 199.044 50.2553C199.837 54.0683 200.645 57.8681 201.477 61.8147C199.093 61.8147 196.795 61.8147 194.407 61.8147C193.798 58.7911 193.163 55.6567 192.535 52.5164C192.285 51.2658 192.073 49.9817 191.793 48.7609C191.73 48.4866 191.454 48.2699 191.276 48.2686C187.387 48.2409 183.498 48.2349 179.608 48.287C179.425 48.2894 179.159 48.7935 179.075 49.1893C178.189 53.391 177.333 57.6182 176.463 61.8656C174.189 61.8656 171.926 61.8656 169.584 61.8656C170.05 59.6229 170.501 57.4536 170.952 55.285C171.987 50.3078 173.016 45.3257 174.06 40.3556C174.933 36.197 175.829 32.0585 176.702 27.9004C177.737 22.9735 178.756 18.0327 179.787 13.1022C180.621 9.11636 181.454 5.13002 182.314 1.16827C182.378 0.87253 182.661 0.610848 182.844 0.606978C184.752 0.56652 186.66 0.582018 188.617 0.582018C189.443 4.46121 190.28 8.33758 191.095 12.2323C191.974 16.4323 192.83 20.6525 193.703 24.8584C194.744 29.8806 195.792 34.8983 196.842 39.9135C196.941 40.3867 197.077 40.8277 197.226 41.3819ZM187.943 29.5306C187.136 25.5838 186.328 21.637 185.441 17.3001C184.114 23.8635 182.867 30.0311 181.603 36.2823C184.205 36.2823 186.704 36.2823 189.291 36.2823C188.831 34.0401 188.393 31.9006 187.943 29.5306Z" fill="#E3E4E6"/>
<path d="M82.516 61.9065C81.3465 61.9065 80.2479 61.8602 79.151 61.9276C78.6621 61.9576 78.3931 61.713 78.2032 60.7071C77.4725 56.8368 76.6981 52.9997 75.9098 49.1759C75.828 48.7789 75.5464 48.2876 75.3562 48.2852C71.324 48.2338 67.2917 48.2463 63.2673 48.2463C62.3492 52.8125 61.4415 57.3271 60.5318 61.8517C58.2725 61.8517 56.0115 61.8517 53.6517 61.8517C53.9589 60.3249 54.2351 58.9054 54.5287 57.501C56.4298 48.4074 58.3293 39.3124 60.2399 30.227C61.9522 22.0846 63.6779 13.9538 65.3981 5.81833C65.7063 4.36099 65.9943 2.88313 66.3408 1.46419C66.4353 1.07726 66.707 0.62504 66.9006 0.61877C68.832 0.556224 70.7642 0.580814 72.6815 0.580814C76.9697 21.0301 81.246 41.422 85.5416 61.9065C84.4965 61.9065 83.542 61.9065 82.516 61.9065ZM71.1268 36.3299C71.8416 36.3299 72.5565 36.3299 73.3459 36.3299C72.0697 30.011 70.8094 23.7709 69.4958 17.2669C68.1841 23.7465 66.9166 30.0077 65.6367 36.3299C67.4563 36.3299 69.2201 36.3299 71.1268 36.3299Z" fill="#E3E4E6"/>
<path d="M38.3963 61.906C35.6543 61.906 32.9839 61.906 30.2723 61.906C30.2723 41.5748 30.2723 21.3081 30.2723 0.956116C32.4676 0.956116 34.6742 0.956116 36.9379 0.956116C36.9379 17.0359 36.9379 33.1375 36.9379 49.3552C41.6358 49.3552 46.2775 49.3552 50.9607 49.3552C50.9607 53.5598 50.9607 57.6493 50.9607 61.906C46.803 61.906 42.6355 61.906 38.3963 61.906Z" fill="#E3E4E6"/>
<path d="M152.997 46.7829C152.997 47.6965 152.997 48.4663 152.997 49.3516C157.618 49.3516 162.212 49.3516 166.849 49.3516C166.849 53.5563 166.849 57.6459 166.849 61.8219C160.024 61.8219 153.187 61.8219 146.306 61.8219C146.306 41.5808 146.306 21.3139 146.306 0.959778C148.498 0.959778 150.705 0.959778 152.997 0.959778C152.997 16.168 152.997 31.4035 152.997 46.7829Z" fill="#E3E4E6"/>
</svg>
