<svg width="73" height="74" viewBox="0 0 73 74" fill="none" xmlns="http://www.w3.org/2000/svg">
<path d="M72.9722 39.3329C72.9405 39.408 72.8871 39.4576 72.8805 39.5128C72.8097 40.1069 72.7576 40.7035 72.6788 41.2965C72.3847 43.5096 71.8895 45.6766 71.1928 47.7989C70.6285 49.5178 69.938 51.1825 69.1264 52.7989C67.59 55.8588 65.6522 58.6395 63.3363 61.159C61.3369 63.3341 59.1067 65.2421 56.646 66.8737C52.7002 69.4902 48.4054 71.2812 43.7636 72.2258C42.0407 72.5765 40.3007 72.7989 38.5429 72.8906C36.4278 73.0008 34.3209 72.944 32.2161 72.6997C28.668 72.2879 25.2562 71.3695 21.9827 69.9506C18.3125 68.3597 14.9924 66.2186 12.0253 63.5304C8.71787 60.5339 6.04879 57.0501 4.00995 53.0824C2.20716 49.5741 1.01331 45.8688 0.438004 41.966C0.349563 41.366 0.278435 40.7634 0.208301 40.1609C0.139068 39.5662 0.518317 39.0428 1.06218 38.9663C1.75723 38.8686 2.24961 39.1961 2.35424 39.853C2.53116 40.9637 2.65264 42.0846 2.86693 43.1877C3.62007 47.0645 5.04014 50.689 7.06995 54.0758C8.20186 55.9645 9.52137 57.713 10.9713 59.3683C11.2929 59.7354 11.6215 59.8922 12.1276 59.8903C17.6973 59.869 23.2671 59.8768 28.837 59.8772C29.3458 59.8773 29.7147 60.1139 29.891 60.5476C30.0665 60.9792 29.9661 61.4662 29.6348 61.7787C29.4114 61.9896 29.1437 62.0773 28.8375 62.0766C27.443 62.0736 26.0485 62.0753 24.654 62.0753C21.1111 62.0753 17.5681 62.0753 14.0252 62.0753C13.9402 62.0753 13.8551 62.0753 13.7701 62.0753C13.7648 62.0992 13.7595 62.1231 13.7542 62.147C20.5493 67.9732 28.4082 70.9496 37.3888 70.7249C45.6679 70.5178 52.901 67.552 59.1417 62.1449C59.1365 62.1217 59.1312 62.0985 59.1259 62.0753C59.0407 62.0753 58.9555 62.0753 58.8703 62.0753C56.9732 62.0753 55.0761 62.0759 53.1789 62.0749C52.7145 62.0746 52.3599 61.8732 52.1657 61.4501C51.9752 61.0349 52.0172 60.6243 52.3088 60.2635C52.5376 59.9804 52.8499 59.8745 53.2126 59.875C55.8718 59.8786 58.5311 59.8755 61.1903 59.8802C61.3646 59.8805 61.4847 59.836 61.6079 59.7028C63.9174 57.206 65.8278 54.4352 67.3169 51.3779C68.8673 48.1946 69.8987 44.8493 70.4021 41.3425C70.6383 39.6972 70.7613 38.0443 70.7483 36.3821C70.7223 33.0674 70.261 29.8172 69.3055 26.6398C68.149 22.7938 66.3705 19.2601 63.9751 16.0383C63.0467 14.7894 62.0334 13.6125 60.9443 12.4986C59.325 10.8421 57.5574 9.36528 55.6426 8.06534C53.6737 6.72865 51.5828 5.61696 49.3802 4.71441C46.9186 3.70576 44.3729 2.9915 41.7444 2.59947C40.5383 2.41959 39.3176 2.31998 38.0998 2.24028C35.961 2.10028 33.8281 2.22282 31.7077 2.52313C28.1137 3.03214 24.6844 4.08195 21.4226 5.68095C18.7174 7.00707 16.2286 8.65367 13.9541 10.6295C11.3866 12.8599 9.20179 15.4145 7.39461 18.2946C6.05114 20.4357 4.95845 22.6962 4.12887 25.0844C3.92058 25.684 3.29851 25.9861 2.72193 25.7826C2.126 25.5722 1.83153 24.9538 2.04477 24.3444C3.31788 20.7066 5.1324 17.3615 7.47228 14.2993C8.52156 12.9261 9.65858 11.6293 10.8962 10.4257C13.4363 7.95549 16.2652 5.87676 19.4029 4.22165C21.8549 2.92822 24.4172 1.91873 27.0955 1.20617C29.0708 0.680633 31.0763 0.320488 33.1135 0.140425C33.3746 0.117344 33.6335 0.0687983 33.8766 0.0159981C35.5795 -5.28959e-05 37.2994 -5.2893e-05 39.026 0.016428C39.1082 0.0517728 39.1829 0.0820966 39.2593 0.0878286C41.2821 0.239406 43.279 0.558658 45.2459 1.04912C48.3336 1.81907 51.2727 2.97136 54.0602 4.51196C57.6 6.4683 60.7325 8.94088 63.4568 11.9254C65.9305 14.6354 67.954 17.6521 69.5226 20.9723C70.8691 23.8222 71.8421 26.794 72.3862 29.8976C72.6025 31.1312 72.7165 32.3826 72.8815 33.6253C72.888 33.6738 72.9409 33.7161 72.9722 33.7613C72.9722 35.6109 72.9722 37.4605 72.9722 39.3329Z" fill="url(#paint0_linear_62_3073)"/>
<path d="M-4.57764e-05 36.022C0.0551401 35.9548 0.124488 35.9203 0.163234 35.8646C0.429917 35.4807 0.798259 35.3187 1.25342 35.3828C1.72373 35.449 2.04733 35.7228 2.15018 36.1861C2.25612 36.6633 2.25135 37.1393 1.86192 37.5204C1.37711 37.9948 0.574905 37.919 0.185543 37.362C0.131133 37.2842 0.0750953 37.2075 0.00988283 37.1485C-4.52907e-05 36.7927 -4.52899e-05 36.4188 -4.57764e-05 36.022Z" fill="url(#paint1_linear_62_3073)"/>
<path d="M30.554 38.9283C30.2723 40.2967 29.9971 41.6455 29.7095 42.9915C29.6756 43.1504 29.7116 43.2427 29.8209 43.3503C30.5606 44.0778 31.2979 44.8079 32.0285 45.5446C33.0952 46.6201 34.1555 47.7019 35.2189 48.7807C35.2527 48.815 35.2901 48.8458 35.3543 48.9039C35.3619 48.8109 35.3721 48.7445 35.3721 48.678C35.3728 42.054 35.3733 35.4299 35.3683 28.8059C35.3682 28.6953 35.3257 28.5666 35.2609 28.4767C32.8427 25.1175 30.4193 21.7622 27.9971 18.4059C27.4852 17.6965 26.973 16.9871 26.4648 16.275C26.07 15.7218 26.1661 15.0311 26.6835 14.6592C27.1801 14.3022 27.8722 14.4379 28.2659 14.9812C30.3048 17.7949 32.3408 20.6106 34.3778 23.4256C35.0282 24.3245 35.6784 25.2235 36.329 26.1223C36.3561 26.1598 36.3861 26.1953 36.4324 26.2543C36.7132 25.8256 36.984 25.4152 37.2517 25.0029C38.9815 22.3393 40.7096 19.6747 42.441 17.0122C42.7173 16.5872 43.1137 16.3754 43.6214 16.4618C44.0807 16.54 44.3666 16.8423 44.486 17.2847C44.5743 17.6118 44.5118 17.9211 44.3208 18.2108C43.4776 19.4891 42.6413 20.7719 41.8019 22.0527C40.4162 24.1671 39.0289 26.2805 37.6476 28.3977C37.5859 28.4923 37.5469 28.6208 37.5468 28.7336C37.5421 34.182 37.5427 39.6304 37.5428 45.0788C37.5428 45.1431 37.5428 45.2074 37.5428 45.3301C37.6398 45.2628 37.7023 45.2233 37.7605 45.1784C39.6785 43.6994 41.5973 42.2215 43.5089 40.7344C43.5841 40.6759 43.6236 40.5289 43.6238 40.4229C43.6299 37.4717 43.6274 34.5205 43.6296 31.5693C43.6302 30.7224 44.4041 30.2054 45.1806 30.5264C45.5806 30.6918 45.8269 31.0883 45.827 31.577C45.8279 33.9202 45.8274 36.2633 45.8274 38.6064C45.8274 38.695 45.8274 38.7837 45.8274 38.9189C45.9299 38.8446 46.0051 38.7933 46.077 38.7375C49.1601 36.343 52.2492 33.9562 55.321 31.5472C56.0097 31.0071 56.775 31.2314 57.0912 31.8475C57.34 32.332 57.2238 32.8662 56.7767 33.2132C55.4843 34.2162 54.1894 35.216 52.8951 36.2166C49.46 38.8718 46.0246 41.5265 42.5897 44.182C40.9813 45.4254 39.3759 46.6729 37.7624 47.9098C37.5953 48.0379 37.5378 48.1672 37.5381 48.3735C37.5443 52.1031 37.5426 55.8326 37.5426 59.5622C37.5426 59.6664 37.5426 59.7707 37.5426 59.9156C37.6532 59.9156 37.7458 59.9156 37.8385 59.9156C39.6546 59.9156 41.4707 59.9143 43.2869 59.9163C43.9393 59.917 44.3863 60.285 44.4635 60.875C44.5517 61.5483 44.066 62.1139 43.3848 62.1164C42.1362 62.1211 40.8876 62.1178 39.639 62.1178C37.3607 62.1178 35.0825 62.119 32.8042 62.1169C32.2399 62.1164 31.7899 61.7323 31.7166 61.201C31.6365 60.6211 31.9452 60.1215 32.4949 59.9651C32.6323 59.926 32.7821 59.9184 32.9263 59.9177C33.7284 59.9134 34.5305 59.9156 35.3595 59.9156C35.3645 59.8247 35.3722 59.7475 35.3723 59.6703C35.3729 57.2055 35.3749 54.7408 35.3664 52.276C35.366 52.1568 35.3016 52.0084 35.2171 51.9231C33.6369 50.3285 32.048 48.7426 30.4636 47.152C29.8691 46.5551 29.278 45.9547 28.694 45.3475C28.5697 45.2183 28.4426 45.1761 28.2682 45.1765C25.6008 45.1812 22.9333 45.1793 20.2659 45.1803C19.9491 45.1805 19.6536 45.1194 19.4076 44.905C19.0535 44.5964 18.9397 44.0981 19.1153 43.6377C19.267 43.2401 19.6676 42.9722 20.1267 42.9719C22.0888 42.9703 24.0508 42.9712 26.0129 42.9712C26.107 42.9712 26.2012 42.9712 26.3485 42.9712C26.2609 42.8741 26.2119 42.8151 26.158 42.761C24.8943 41.4922 23.6271 40.227 22.3668 38.9549C21.0498 37.6254 19.7403 36.2885 18.4258 34.9566C17.9309 34.4551 17.4313 33.9584 16.9335 33.4597C16.541 33.0665 16.5037 32.4556 16.8462 32.0249C17.2182 31.557 17.8092 31.4503 18.2965 31.7714C18.4103 31.8464 18.5117 31.9433 18.6085 32.0403C20.5607 33.9969 22.5117 35.9546 24.4622 37.9129C25.5087 38.9635 26.5537 40.0156 27.5998 41.0667C27.6611 41.1283 27.7264 41.186 27.8186 41.2726C27.9394 40.688 28.0538 40.1371 28.1671 39.586C28.4249 38.3329 28.6779 37.0788 28.9414 35.827C29.079 35.173 29.6395 34.8043 30.2758 34.9304C30.8514 35.0445 31.2303 35.6168 31.1101 36.2437C30.9393 37.1344 30.7424 38.02 30.554 38.9283Z" fill="url(#paint2_linear_62_3073)"/>
<path d="M0.755353 33.6519C0.360097 33.4266 0.178643 33.0846 0.240237 32.6677C0.44921 31.253 0.662453 29.8382 0.919462 28.4317C1.06758 27.6211 2.02331 27.2935 2.66975 27.7974C3.0443 28.0894 3.15405 28.4909 3.06571 28.9485C2.91561 29.7259 2.75038 30.5005 2.61177 31.2799C2.53119 31.7329 2.48001 32.192 2.4334 32.6501C2.34332 33.5354 1.59572 33.9944 0.755353 33.6519Z" fill="url(#paint3_linear_62_3073)"/>
<path d="M46.4612 60.1264C46.6815 59.9364 46.9247 59.874 47.1935 59.875C48.0514 59.8781 48.9092 59.8749 49.7671 59.8766C50.4341 59.8779 50.8937 60.3291 50.8931 60.9775C50.8925 61.623 50.4301 62.0726 49.7601 62.0741C48.9184 62.076 48.0767 62.0749 47.2351 62.0744C46.7168 62.0741 46.3358 61.8348 46.1575 61.3996C45.9758 60.9562 46.0785 60.5091 46.4612 60.1264Z" fill="url(#paint4_linear_62_3073)"/>
<defs>
<linearGradient id="paint0_linear_62_3073" x1="36.5862" y1="0.00401306" x2="36.5862" y2="72.9444" gradientUnits="userSpaceOnUse">
<stop stop-color="#B16CEA"/>
<stop offset="0.3" stop-color="#FF5E69"/>
<stop offset="0.67" stop-color="#FF8A56"/>
<stop offset="1" stop-color="#FFA84B"/>
</linearGradient>
<linearGradient id="paint1_linear_62_3073" x1="1.10452" y1="35.3691" x2="1.10452" y2="37.8329" gradientUnits="userSpaceOnUse">
<stop stop-color="#B16CEA"/>
<stop offset="0.3" stop-color="#FF5E69"/>
<stop offset="0.67" stop-color="#FF8A56"/>
<stop offset="1" stop-color="#FFA84B"/>
</linearGradient>
<linearGradient id="paint2_linear_62_3073" x1="36.916" y1="14.4609" x2="36.916" y2="62.119" gradientUnits="userSpaceOnUse">
<stop stop-color="#B16CEA"/>
<stop offset="0.3" stop-color="#FF5E69"/>
<stop offset="0.67" stop-color="#FF8A56"/>
<stop offset="1" stop-color="#FFA84B"/>
</linearGradient>
<linearGradient id="paint3_linear_62_3073" x1="1.66151" y1="27.5576" x2="1.66151" y2="33.7656" gradientUnits="userSpaceOnUse">
<stop stop-color="#B16CEA"/>
<stop offset="0.3" stop-color="#FF5E69"/>
<stop offset="0.67" stop-color="#FF8A56"/>
<stop offset="1" stop-color="#FFA84B"/>
</linearGradient>
<linearGradient id="paint4_linear_62_3073" x1="48.4817" y1="59.875" x2="48.4817" y2="62.0752" gradientUnits="userSpaceOnUse">
<stop stop-color="#B16CEA"/>
<stop offset="0.3" stop-color="#FF5E69"/>
<stop offset="0.67" stop-color="#FF8A56"/>
<stop offset="1" stop-color="#FFA84B"/>
</linearGradient>
</defs>
</svg>
