<svg width="95" height="87" viewBox="0 0 95 87" fill="none" xmlns="http://www.w3.org/2000/svg">
<path d="M46.9888 41.6995C54.0388 41.6995 59.5221 36.3828 59.5221 29.8578C59.5221 23.3328 53.7777 18.2578 46.7277 18.2578C39.6777 18.2578 34.1943 23.5745 34.1943 29.8578C34.1943 36.3828 39.9388 41.6995 46.9888 41.6995ZM46.7277 23.0911C46.9888 23.0911 46.9888 23.0911 46.7277 23.0911C50.9054 23.0911 54.2999 26.2328 54.2999 30.0995C54.2999 33.9661 50.9054 36.8661 46.7277 36.8661C42.5499 36.8661 39.4166 33.7245 39.4166 30.0995C39.4166 26.2328 42.811 23.0911 46.7277 23.0911Z" fill="url(#paint0_linear_62_3509)"/>
<path d="M85.6337 40.2496C80.6726 36.1412 74.1448 33.9662 67.3559 34.2079C66.5726 34.2079 66.0503 34.2079 65.267 34.2079C64.7448 36.1412 63.9614 37.8329 62.917 39.2829C64.4837 39.0412 65.7892 39.0412 67.3559 39.0412C72.317 38.7996 77.2781 40.2495 81.1948 42.9079V60.3079H86.417V40.9745L85.6337 40.2496Z" fill="url(#paint1_linear_62_3509)"/>
<path d="M61.3499 18.7413C62.6554 15.8413 66.311 14.3913 69.7054 15.5996C72.8388 16.808 74.4054 20.1913 73.0999 23.333C72.0554 25.508 69.7054 26.958 67.3554 26.958C66.8332 26.958 66.0499 26.958 65.5277 26.7163C65.7888 27.9246 65.7888 29.133 65.7888 30.0996C65.7888 30.583 65.7888 31.0663 65.7888 31.5496C66.311 31.5496 66.8332 31.7913 67.3554 31.7913C73.8832 31.7913 79.1054 26.958 79.1054 21.158C79.1054 15.1163 73.8832 10.283 67.6166 10.283C63.4388 10.283 59.7832 12.2163 57.6943 15.5996C58.9999 16.3246 60.3054 17.2913 61.3499 18.7413Z" fill="url(#paint2_linear_62_3509)"/>
<path d="M31.583 39.5246C30.5386 38.0746 29.7552 36.3829 29.233 34.4496C28.4497 34.4496 27.9275 34.4496 27.1441 34.4496C20.3552 34.2079 13.8275 36.3829 8.86634 40.2496L8.08301 40.9746V60.3079H13.3052V42.9079C17.483 40.2496 22.183 38.7996 27.1441 39.0413C28.7108 39.0413 30.2775 39.2829 31.583 39.5246Z" fill="url(#paint3_linear_62_3509)"/>
<path d="M27.1449 31.5495C27.6671 31.5495 28.1894 31.5495 28.7116 31.3078C28.7116 30.8245 28.7116 30.3412 28.7116 29.8578C28.7116 28.6495 28.7116 27.4412 28.9727 26.4745C28.4505 26.7162 27.6671 26.7162 27.1449 26.7162C23.7505 26.7162 20.8783 24.0578 20.8783 20.9162C20.8783 17.7745 23.7505 15.1162 27.1449 15.1162C29.756 15.1162 32.106 16.5662 33.1505 18.7412C34.1949 17.5328 35.7616 16.3245 37.0672 15.3578C33.6727 10.2828 26.6227 8.59117 21.1394 11.7328C15.656 14.8745 13.8283 21.3995 17.2227 26.4745C19.3116 29.6162 22.9671 31.5495 27.1449 31.5495Z" fill="url(#paint4_linear_62_3509)"/>
<path d="M68.4002 54.7496L67.878 54.0246C62.6558 48.7079 55.3447 45.5663 47.5113 45.8079C39.678 45.5663 32.1058 48.7079 26.8835 54.0246L26.3613 54.7496V73.1163C26.3613 75.2913 28.1891 77.2246 30.8002 77.2246H64.2224C66.5724 77.2246 68.6613 75.2913 68.6613 73.1163V54.7496H68.4002ZM63.178 72.3913H31.5835V56.4413C35.7613 52.5746 41.5058 50.6413 47.5113 50.6413C53.2558 50.3996 59.0002 52.5746 63.178 56.4413V72.3913Z" fill="url(#paint5_linear_62_3509)"/>
<defs>
<linearGradient id="paint0_linear_62_3509" x1="46.8582" y1="18.2578" x2="46.8582" y2="41.6995" gradientUnits="userSpaceOnUse">
<stop stop-color="#B16CEA"/>
<stop offset="0.3" stop-color="#FF5E69"/>
<stop offset="0.67" stop-color="#FF8A56"/>
<stop offset="1" stop-color="#FFA84B"/>
</linearGradient>
<linearGradient id="paint1_linear_62_3509" x1="74.667" y1="34.1897" x2="74.667" y2="60.3079" gradientUnits="userSpaceOnUse">
<stop stop-color="#B16CEA"/>
<stop offset="0.3" stop-color="#FF5E69"/>
<stop offset="0.67" stop-color="#FF8A56"/>
<stop offset="1" stop-color="#FFA84B"/>
</linearGradient>
<linearGradient id="paint2_linear_62_3509" x1="68.3999" y1="10.283" x2="68.3999" y2="31.7913" gradientUnits="userSpaceOnUse">
<stop stop-color="#B16CEA"/>
<stop offset="0.3" stop-color="#FF5E69"/>
<stop offset="0.67" stop-color="#FF8A56"/>
<stop offset="1" stop-color="#FFA84B"/>
</linearGradient>
<linearGradient id="paint3_linear_62_3509" x1="19.833" y1="34.4314" x2="19.833" y2="60.3079" gradientUnits="userSpaceOnUse">
<stop stop-color="#B16CEA"/>
<stop offset="0.3" stop-color="#FF5E69"/>
<stop offset="0.67" stop-color="#FF8A56"/>
<stop offset="1" stop-color="#FFA84B"/>
</linearGradient>
<linearGradient id="paint4_linear_62_3509" x1="26.2885" y1="10.1475" x2="26.2885" y2="31.5495" gradientUnits="userSpaceOnUse">
<stop stop-color="#B16CEA"/>
<stop offset="0.3" stop-color="#FF5E69"/>
<stop offset="0.67" stop-color="#FF8A56"/>
<stop offset="1" stop-color="#FFA84B"/>
</linearGradient>
<linearGradient id="paint5_linear_62_3509" x1="47.5113" y1="45.7949" x2="47.5113" y2="77.2246" gradientUnits="userSpaceOnUse">
<stop stop-color="#B16CEA"/>
<stop offset="0.3" stop-color="#FF5E69"/>
<stop offset="0.67" stop-color="#FF8A56"/>
<stop offset="1" stop-color="#FFA84B"/>
</linearGradient>
</defs>
</svg>
