<svg width="73" height="73" viewBox="0 0 73 73" fill="none" xmlns="http://www.w3.org/2000/svg">
<path d="M71.4763 18.1721L54.8316 1.52741C54.3474 1.04316 53.7726 0.659038 53.1399 0.396963C52.5073 0.134889 51.8292 0 51.1444 0C50.4596 0 49.7815 0.134889 49.1489 0.396963C48.5162 0.659038 47.9414 1.04316 47.4572 1.52741L1.527 47.4539C1.04183 47.9373 0.657122 48.5121 0.395043 49.1449C0.132964 49.7777 -0.0013079 50.4561 -3.6836e-05 51.1411V67.7857C-3.6836e-05 69.1686 0.549321 70.4949 1.52718 71.4728C2.50505 72.4506 3.83131 73 5.21422 73H67.7853C68.378 73 68.9464 72.7646 69.3655 72.3455C69.7846 71.9264 70.02 71.358 70.02 70.7653C70.02 70.1726 69.7846 69.6042 69.3655 69.1852C68.9464 68.7661 68.378 68.5306 67.7853 68.5306H28.4884L71.4763 25.5465C71.9605 25.0623 72.3447 24.4875 72.6067 23.8548C72.8688 23.2222 73.0037 22.5441 73.0037 21.8593C73.0037 21.1745 72.8688 20.4964 72.6067 19.8638C72.3447 19.2311 71.9605 18.6563 71.4763 18.1721ZM15.8252 60.3368L48.4181 27.7402L55.6883 35.0104L23.0917 67.6032L15.8252 60.3368ZM12.6632 57.1785L5.39672 49.9083L37.9896 17.3154L45.2597 24.5819L12.6632 57.1785ZM4.46933 67.7857V55.3013L17.6986 68.5306H5.21422C5.01666 68.5306 4.8272 68.4522 4.6875 68.3125C4.54781 68.1728 4.46933 67.9833 4.46933 67.7857ZM68.3142 22.3844L58.8466 31.8521L41.1516 14.1534L50.6155 4.68949C50.6847 4.62023 50.7669 4.56528 50.8573 4.5278C50.9477 4.49031 51.0446 4.47102 51.1425 4.47102C51.2404 4.47102 51.3374 4.49031 51.4278 4.5278C51.5182 4.56528 51.6004 4.62023 51.6695 4.68949L68.3142 21.3304C68.3835 21.3996 68.4384 21.4818 68.4759 21.5722C68.5134 21.6626 68.5327 21.7595 68.5327 21.8574C68.5327 21.9553 68.5134 22.0523 68.4759 22.1427C68.4384 22.2331 68.3835 22.3153 68.3142 22.3844Z" fill="url(#paint0_linear_62_3078)"/>
<defs>
<linearGradient id="paint0_linear_62_3078" x1="36.5018" y1="0" x2="36.5018" y2="73" gradientUnits="userSpaceOnUse">
<stop stop-color="#B16CEA"/>
<stop offset="0.3" stop-color="#FF5E69"/>
<stop offset="0.67" stop-color="#FF8A56"/>
<stop offset="1" stop-color="#FFA84B"/>
</linearGradient>
</defs>
</svg>
