<svg width="96" height="73" viewBox="0 0 96 73" fill="none" xmlns="http://www.w3.org/2000/svg">
<path d="M81.3298 31.9892C81.0415 31.8975 80.7286 31.9241 80.46 32.0632C80.1913 32.2022 79.9888 32.4423 79.8972 32.7306C79.8055 33.0189 79.8322 33.3318 79.9712 33.6004C80.1102 33.8691 80.3503 34.0715 80.6386 34.1632C89.5536 37.0034 93.5298 41.2397 93.5298 47.9055C93.5298 53.8345 88.121 58.4358 84.8999 60.6532C84.7474 60.7579 84.6226 60.8982 84.5363 61.062C84.4501 61.2257 84.405 61.408 84.4049 61.5931V70.3143C81.6658 69.2754 79.2191 67.5886 77.2738 65.3982C77.1418 65.2513 76.9743 65.1408 76.7874 65.0773C76.6004 65.0138 76.4003 64.9994 76.2062 65.0355C75.556 65.1609 74.8922 65.3389 74.2192 65.5191C73.0558 65.8316 71.8558 66.1556 70.7175 66.1556C64.8593 66.1556 60.7577 64.8963 56.5647 61.8143C56.3209 61.6349 56.0158 61.5598 55.7166 61.6053C55.4173 61.6509 55.1484 61.8135 54.969 62.0573C54.7896 62.3011 54.7145 62.6062 54.76 62.9055C54.8056 63.2047 54.9682 63.4736 55.212 63.653C59.836 67.0521 64.3278 68.4368 70.7175 68.4368C72.157 68.4368 73.5075 68.0741 74.8123 67.7228C75.2184 67.611 75.6222 67.5015 76.0214 67.408C80.285 71.9112 85.1075 72.9355 85.3174 72.9765C85.4831 73.011 85.6544 73.0077 85.8186 72.9671C85.9829 72.9264 86.1359 72.8493 86.2664 72.7416C86.3977 72.6349 86.5035 72.5003 86.5761 72.3476C86.6487 72.1949 86.6863 72.0278 86.6861 71.8587V62.1885C92.5763 57.9887 95.8111 52.9334 95.8111 47.9055C95.8111 40.1926 91.2098 35.135 81.3298 31.9892Z" fill="url(#paint0_linear_62_3083)"/>
<path d="M75.2806 30.797C75.2806 13.2404 59.2709 0 38.0441 0C16.71 0 -6.10352e-05 13.5301 -6.10352e-05 30.8015C-6.10352e-05 41.1562 7.32498 48.5748 13.6873 53.0643V68.2028C13.6885 68.3928 13.737 68.5795 13.8283 68.7461C13.9196 68.9127 14.051 69.054 14.2105 69.1572C14.3701 69.2604 14.5528 69.3223 14.7422 69.3373C14.9316 69.3522 15.1218 69.3199 15.2956 69.243C15.6287 69.0947 23.4145 65.5565 30.0757 58.2724C32.9615 58.8085 36.2259 59.3241 39.1869 59.3241C60.7742 59.3241 75.2806 47.8585 75.2806 30.797ZM39.1847 57.0428C36.1963 57.0428 32.7995 56.4703 29.8704 55.9113C29.6763 55.8757 29.4763 55.8903 29.2894 55.9538C29.1025 56.0173 28.935 56.1275 28.8028 56.2741C24.1263 61.5483 18.6308 64.8995 15.9686 66.3435V52.4689C15.9685 52.2839 15.9234 52.1016 15.8371 51.9378C15.7509 51.7741 15.6261 51.6338 15.4735 51.529C9.45565 47.3886 2.28117 40.4353 2.28117 30.8015C2.28117 14.8076 17.9897 2.28126 38.0441 2.28126C57.9729 2.28126 72.9994 14.5407 72.9994 30.797C72.9994 46.4966 59.4101 57.0428 39.1847 57.0428Z" fill="url(#paint1_linear_62_3083)"/>
<path d="M37.6403 26.2345C35.1241 26.2345 33.0778 28.2808 33.0778 30.797C33.0778 33.3132 35.1241 35.3595 37.6403 35.3595C40.1565 35.3595 42.2027 33.3132 42.2027 30.797C42.2027 28.2808 40.1565 26.2345 37.6403 26.2345ZM37.6403 33.0782C37.0529 33.052 36.4983 32.8001 36.092 32.3752C35.6856 31.9503 35.4588 31.3849 35.4588 30.797C35.4588 30.209 35.6856 29.6437 36.092 29.2188C36.4983 28.7938 37.0529 28.542 37.6403 28.5157C38.2277 28.542 38.7823 28.7938 39.1886 29.2188C39.595 29.6437 39.8218 30.209 39.8218 30.797C39.8218 31.3849 39.595 31.9503 39.1886 32.3752C38.7823 32.8001 38.2277 33.052 37.6403 33.0782ZM53.6089 26.2345C51.0927 26.2345 49.0464 28.2808 49.0464 30.797C49.0464 33.3132 51.0927 35.3595 53.6089 35.3595C56.1251 35.3595 58.1714 33.3132 58.1714 30.797C58.1714 28.2808 56.1251 26.2345 53.6089 26.2345ZM53.6089 33.0782C53.0215 33.052 52.4669 32.8001 52.0606 32.3752C51.6542 31.9503 51.4274 31.3849 51.4274 30.797C51.4274 30.209 51.6542 29.6437 52.0606 29.2188C52.4669 28.7938 53.0215 28.542 53.6089 28.5157C54.1963 28.542 54.7509 28.7938 55.1572 29.2188C55.5636 29.6437 55.7904 30.209 55.7904 30.797C55.7904 31.3849 55.5636 31.9503 55.1572 32.3752C54.7509 32.8001 54.1963 33.052 53.6089 33.0782ZM21.6717 26.4512C19.1555 26.4512 17.1092 28.4975 17.1092 31.0137C17.1092 33.5299 19.1555 35.5762 21.6717 35.5762C24.1879 35.5762 26.2341 33.5299 26.2341 31.0137C26.2341 28.4975 24.1879 26.4512 21.6717 26.4512ZM21.6717 33.295C21.0843 33.2687 20.5297 33.0169 20.1233 32.5919C19.717 32.167 19.4902 31.6017 19.4902 31.0137C19.4902 30.4257 19.717 29.8604 20.1233 29.4355C20.5297 29.0105 21.0843 28.7587 21.6717 28.7324C22.259 28.7587 22.8136 29.0105 23.22 29.4355C23.6263 29.8604 23.8531 30.4257 23.8531 31.0137C23.8531 31.6017 23.6263 32.167 23.22 32.5919C22.8136 33.0169 22.259 33.2687 21.6717 33.295Z" fill="url(#paint2_linear_62_3083)"/>
<defs>
<linearGradient id="paint0_linear_62_3083" x1="75.279" y1="31.9355" x2="75.279" y2="73.0002" gradientUnits="userSpaceOnUse">
<stop stop-color="#B16CEA"/>
<stop offset="0.3" stop-color="#FF5E69"/>
<stop offset="0.67" stop-color="#FF8A56"/>
<stop offset="1" stop-color="#FFA84B"/>
</linearGradient>
<linearGradient id="paint1_linear_62_3083" x1="37.6403" y1="0" x2="37.6403" y2="69.3408" gradientUnits="userSpaceOnUse">
<stop stop-color="#B16CEA"/>
<stop offset="0.3" stop-color="#FF5E69"/>
<stop offset="0.67" stop-color="#FF8A56"/>
<stop offset="1" stop-color="#FFA84B"/>
</linearGradient>
<linearGradient id="paint2_linear_62_3083" x1="37.6403" y1="26.2345" x2="37.6403" y2="35.5762" gradientUnits="userSpaceOnUse">
<stop stop-color="#B16CEA"/>
<stop offset="0.3" stop-color="#FF5E69"/>
<stop offset="0.67" stop-color="#FF8A56"/>
<stop offset="1" stop-color="#FFA84B"/>
</linearGradient>
</defs>
</svg>
