<svg width="30" height="26" viewBox="0 0 30 26" fill="none" xmlns="http://www.w3.org/2000/svg">
<path d="M12.9168 1.14202V5.79261C12.9168 6.42334 12.3664 6.93439 11.6875 6.93439C9.26518 6.93439 7.94754 9.24244 7.76491 13.7978H11.6875C12.3664 13.7978 12.9168 14.3093 12.9168 14.9398L12.9168 24.7593C12.9168 25.3897 12.3664 25.9008 11.6875 25.9008H1.22904C0.549848 25.9008 0 25.3893 0 24.7593L0 14.9398C0 12.7561 0.236681 10.7521 0.703252 8.98296C1.18177 7.16895 1.91631 5.58288 2.8858 4.26865C3.8834 2.91803 5.13126 1.85817 6.595 1.11982C8.06863 0.377003 9.78228 0.000244141 11.6879 0.000244141C12.3664 0.000244141 12.9168 0.511291 12.9168 1.14202ZM28.7706 6.93447C29.4492 6.93447 30 6.42294 30 5.79269V1.1421C30 0.511371 29.4493 0.000323935 28.7706 0.000323935C26.8657 0.000323935 25.1518 0.377162 23.6787 1.1199C22.2147 1.85825 20.9662 2.91811 19.9684 4.26873C18.9992 5.58296 18.2647 7.16911 17.7861 8.98352C17.3198 10.7532 17.0831 12.7572 17.0831 14.9399V24.7594C17.0831 25.3898 17.6337 25.9009 18.3124 25.9009H28.7705C29.4491 25.9009 29.9994 25.3894 29.9994 24.7594V14.9398C29.9994 14.3094 29.4492 13.7978 28.7705 13.7978H24.9039C25.0838 9.24252 26.3822 6.93447 28.7706 6.93447Z" fill="url(#paint0_linear_5_1177)"/>
<defs>
<linearGradient id="paint0_linear_5_1177" x1="15" y1="0.000244141" x2="15" y2="25.9009" gradientUnits="userSpaceOnUse">
<stop stop-color="#B16CEA"/>
<stop offset="0.3" stop-color="#FF5E69"/>
<stop offset="0.67" stop-color="#FF8A56"/>
<stop offset="1" stop-color="#FFA84B"/>
</linearGradient>
</defs>
</svg>
