<svg width="213" height="61" viewBox="0 0 213 61" fill="none" xmlns="http://www.w3.org/2000/svg">
<path d="M175.449 43.9872C174.263 42.2714 173.448 41.894 172.07 36.2684C172.063 36.503 172.05 36.7377 172.05 36.9723C172.048 40.2127 172.038 43.4531 172.058 46.6931C172.062 47.3597 171.918 47.5551 171.463 47.551C168.612 47.5253 165.76 47.526 162.909 47.5506C162.465 47.5545 162.327 47.3406 162.346 46.7174C162.374 45.7429 162.353 44.7654 162.353 43.7892C162.312 43.7668 162.27 43.7445 162.228 43.7222C162.116 43.8617 161.995 43.9889 161.893 44.1424C160.332 46.4822 158.423 47.7544 156.201 48.1031C153.557 48.5177 151.019 48.0642 148.672 46.1541C146.019 43.9955 144.192 40.8404 143.333 36.5665C142.91 34.4653 142.633 32.3296 142.683 30.1313C142.699 29.3897 142.376 29.4736 142.056 29.4736C136.258 29.4747 130.46 29.4743 124.662 29.4743C122.793 29.4743 120.924 29.4743 119.054 29.4743C118.887 29.4743 118.719 29.4743 118.405 29.4743C118.819 30.4433 119.123 31.2967 119.518 32.049C120.885 34.6523 122.75 36.0953 124.955 36.4581C127.304 36.8447 129.487 36.121 131.318 33.7684C131.446 33.6039 131.653 33.4876 131.824 33.4867C134.866 33.4698 137.907 33.4736 140.949 33.4772C141.054 33.4773 141.16 33.5216 141.336 33.5611C140.771 35.7599 139.968 37.6932 138.975 39.4458C136.583 43.6672 133.598 46.6084 129.893 47.8012C122.197 50.2787 112.942 45.4277 109.693 32.3376C109.693 32.9861 109.7 33.6347 109.692 34.2829C109.66 36.9008 109.049 39.2422 107.952 41.279C105.66 45.5373 102.563 47.6771 98.9114 48.2264C96.34 48.6131 93.7864 48.4739 91.3291 47.1719C88.6949 45.7762 86.5261 43.4798 85.1195 39.8885C84.4832 38.264 84.1299 36.463 83.9433 34.6112C83.8661 33.8447 83.9516 33.7505 84.5049 33.7501C87.4039 33.7479 90.3031 33.7679 93.2019 33.7303C93.6781 33.7241 93.8399 33.9748 93.8997 34.594C94.1469 37.1547 95.5918 38.2115 96.9976 38.1536C98.2019 38.1041 99.3084 36.5708 99.4182 34.8546C99.4985 33.5993 98.7391 31.8681 97.7886 31.4378C96.3877 30.8037 94.9593 30.2961 93.539 29.7543C91.6821 29.0458 89.8501 28.2399 88.2593 26.6114C86.3213 24.6274 85.1991 21.8964 84.8866 18.4913C84.7995 17.5415 84.8104 16.5717 84.7914 15.6104C84.784 15.2377 84.7286 15.0304 84.4259 14.9886C82.6142 14.7387 80.859 15.0708 79.1927 16.1267C77.7206 17.0596 76.7566 18.6461 76.7193 21.0657C76.6496 25.5873 76.6345 30.1109 76.6172 34.6339C76.6018 38.6784 76.6145 42.7232 76.6136 46.7678C76.6134 47.6723 76.611 47.6753 75.9768 47.6755C73.1253 47.6767 70.2737 47.6597 67.4224 47.6915C66.9286 47.697 66.812 47.4597 66.8141 46.7812C66.8308 41.4268 66.8236 36.0722 66.8231 30.7176C66.823 29.7535 66.8216 29.7506 66.1795 29.7506C58.5755 29.7499 50.9715 29.7499 43.3674 29.7516C43.1979 29.7516 43.0284 29.7734 42.785 29.7901C43.1074 30.9731 43.5426 31.9404 44.0783 32.8034C45.3746 34.8915 46.99 36.1769 48.9048 36.5847C51.3337 37.1019 53.5483 36.3632 55.4664 34.0406C55.5989 33.8801 55.8027 33.7631 55.9738 33.7622C59.0787 33.7458 62.1837 33.7496 65.2886 33.7532C65.3956 33.7533 65.5026 33.7963 65.6843 33.8354C65.1743 35.9853 64.3652 37.8352 63.42 39.5347C61.3256 43.3005 58.7195 46.0965 55.5067 47.4913C50.5097 49.6607 45.7045 48.8183 41.205 45.0027C36.6433 41.1343 34.1564 35.1855 33.2448 27.7074C33.1371 28.4099 33.0348 29.1142 32.9208 29.8145C32.3043 33.5993 31.0474 36.8966 29.3146 39.8405C26.8676 43.9978 23.7506 46.3879 20.0592 47.2717C17.6583 47.8465 15.2914 47.617 13.0088 46.384C12.0525 45.8674 11.1624 45.0923 10.2444 44.4285C10.0933 44.3192 9.95325 44.1777 9.72562 43.9791C9.71298 44.3558 9.69674 44.6154 9.69666 44.8751C9.69514 49.77 9.69587 54.6649 9.69523 59.5598C9.6951 60.4973 9.69332 60.4994 9.03282 60.4996C6.24468 60.5005 3.45654 60.5004 0.668404 60.4996C0.00237906 60.4994 0.000322414 60.4974 0.000302072 59.5681C-0.00010115 40.517 -9.97483e-05 21.4658 0.000300622 2.41463C0.000320868 1.48687 0.0023616 1.48329 0.620562 1.48296C3.31365 1.48153 6.00681 1.49715 8.69975 1.46835C9.16963 1.46332 9.34288 1.63888 9.33027 2.35246C9.31671 3.12022 9.41055 3.89197 9.46437 4.77393C9.74816 4.50513 9.99685 4.28796 10.2322 4.0437C11.8702 2.34362 13.7022 1.30221 15.673 0.818329C18.3785 0.154043 21.0281 0.518731 23.5827 2.0207C25.8738 3.36778 27.7491 5.52089 29.3501 8.23791C30.6837 10.501 31.7139 13.0189 32.3861 15.8082C32.7848 17.4623 32.982 19.2187 33.2688 20.9295C33.2909 21.0609 33.3009 21.1968 33.3257 21.3269C33.3318 21.3588 33.3741 21.3762 33.487 21.4824C34.3353 15.4514 36.3834 10.5259 39.7802 6.85616C43.1631 3.20132 47.0003 1.42332 51.1747 1.99203C59.5838 3.13765 64.7867 9.84441 66.8234 21.6553C66.8234 21.5099 66.8234 21.2495 66.8234 20.989C66.8234 15.1288 66.8231 9.26872 66.8236 3.40859C66.8237 2.45076 66.8252 2.44825 67.4717 2.448C70.1014 2.44697 72.7312 2.46106 75.3608 2.43477C75.8132 2.43025 75.9726 2.61809 75.9578 3.29003C75.9271 4.69044 75.9486 6.09326 75.9486 7.4951C75.9486 7.73955 75.9486 7.98401 75.9486 8.22846C75.9892 8.25453 76.0297 8.2806 76.0703 8.30667C76.2863 7.93798 76.5001 7.56643 76.7188 7.20105C78.1505 4.80911 79.875 3.08195 82.0554 2.53246C82.9043 2.31852 83.786 2.3718 84.6532 2.31918C85.0235 2.29671 84.977 2.71209 84.9773 3.04933C84.9795 5.94492 84.978 8.84052 84.9799 11.7361C84.9801 11.9971 84.9961 12.258 85.1064 12.534C85.2692 11.9772 85.4205 11.4127 85.5967 10.865C86.8472 6.97846 88.9458 4.43093 91.654 2.87978C93.1636 2.01519 94.7339 1.58752 96.363 1.45623C98.5913 1.27666 100.761 1.60755 102.809 2.88514C106.168 4.98109 108.214 8.64287 108.741 13.9573C108.911 15.6781 108.877 15.6851 107.683 15.6851C105.212 15.6851 102.74 15.6853 100.269 15.685C99.5288 15.685 99.5288 15.6844 99.4288 14.6155C99.2898 13.1307 98.586 11.9645 97.6199 11.5711C96.6664 11.1829 95.8986 11.6419 95.2887 12.6779C94.6893 13.6961 94.6207 14.8738 94.9636 16.1C95.309 17.3352 96.0069 17.9731 96.8466 18.3124C98.582 19.0135 100.323 19.6843 102.062 20.3667C104.189 21.2014 106.122 22.575 107.683 24.8677C108.208 25.6387 108.601 26.5984 109.164 27.6819C108.892 22.7648 109.402 18.2135 111.003 14.0113C112.606 9.80617 114.894 6.60926 117.815 4.34376C120.744 2.07217 123.884 1.17014 127.165 1.50656C134.258 2.2339 140.838 9.32504 142.535 20.7791C142.55 20.5161 142.58 20.2531 142.58 19.99C142.583 14.4286 142.582 8.86724 142.582 3.30586C142.582 2.31214 142.583 2.31019 143.253 2.31C146.073 2.30921 148.893 2.30915 151.713 2.31005C152.37 2.31026 152.372 2.31249 152.372 3.25435C152.373 11.8952 152.355 20.5361 152.385 29.1767C152.393 31.3221 152.828 33.2816 154.041 34.7347C154.955 35.8303 156.003 36.3256 157.16 36.2164C159.168 36.0271 160.715 34.6981 161.647 32.0535C162.07 30.8548 162.26 29.5563 162.259 28.2016C162.257 19.9515 162.258 11.7013 162.258 3.45118C162.258 2.31003 162.258 2.30974 163.067 2.3097C165.808 2.30956 168.548 2.30948 171.289 2.30975C172.048 2.30982 172.049 2.31042 172.049 3.3848C172.049 13.1976 172.049 23.0105 172.049 32.8233C172.049 33.8855 172.049 33.8866 172.769 33.8867C175.589 33.8871 178.409 33.9054 181.228 33.8688C181.701 33.8627 181.883 34.1039 181.933 34.7319C182.175 37.7977 184.89 39.3195 186.499 37.4807C187.903 35.8766 187.586 33.2809 186.485 32.1006C185.53 31.0784 184.361 30.8328 183.241 30.4479C181.239 29.7601 179.235 29.075 177.392 27.6903C174.891 25.8122 173.368 22.845 172.934 18.817C172.441 14.2406 173.324 10.2479 175.573 6.91546C177.631 3.8652 180.186 2.35475 183.049 1.74219C185.239 1.2735 187.399 1.46475 189.524 2.31437C193.309 3.82748 196.215 8.0342 196.769 13.8839C196.81 14.3137 196.828 14.748 196.858 15.1801C196.89 15.6522 196.748 15.8386 196.418 15.8287C195.706 15.8073 194.993 15.8229 194.28 15.823C192.284 15.8231 190.288 15.8232 188.292 15.8229C187.547 15.8228 187.547 15.8223 187.443 14.7639C187.287 13.1848 186.585 12.0309 185.558 11.6631C184.588 11.3159 183.583 11.9356 183.083 13.1899C182.588 14.4323 182.725 16.1242 183.378 17.1649C184.085 18.2887 185.064 18.5823 185.997 18.9741C187.772 19.7196 189.585 20.2865 191.342 21.1097C193.333 22.0423 195.064 23.645 196.358 26.0853C197.125 27.5301 197.538 29.2121 197.705 31.0169C197.936 33.5129 197.862 35.9933 197.161 38.311C196.754 39.6578 196.225 40.9852 195.575 42.1083C193.729 45.2997 191.309 47.16 188.513 48.0056C186.659 48.5666 184.787 48.6267 182.901 48.3909C181.195 48.1775 179.555 47.5905 178.039 46.464C177.134 45.7912 176.325 44.8448 175.449 43.9872ZM22.2435 29.9558C23.4149 27.7827 23.8848 25.2879 23.6294 22.5938C23.3686 19.843 22.3931 17.618 20.8486 15.9547C19.2759 14.2612 17.4814 13.6087 15.5645 13.9364C13.8192 14.2346 12.3069 15.3513 11.1143 17.2809C9.63605 19.6729 8.9581 22.4607 9.35513 25.6401C9.9758 30.6105 12.7811 33.845 16.0843 34.1287C18.5782 34.3429 20.634 32.8841 22.2435 29.9558ZM128.163 14.1756C123.848 12.4082 119.74 16.5638 119.04 19.6314C123.683 19.6314 128.324 19.6314 133.057 19.6314C131.917 16.8091 130.29 15.1111 128.163 14.1756ZM44.7236 19.684C48.8802 19.684 53.0369 19.684 57.2192 19.684C56.2732 16.5559 53.2909 13.5022 49.8027 13.7637C46.8536 13.9847 43.9585 16.8682 43.2479 19.684C43.7228 19.684 44.1759 19.684 44.7236 19.684Z" fill="#E3E4E6"/>
<path d="M201.066 45.0259C200.157 43.5405 199.703 41.8312 199.617 39.9141C199.52 37.7615 199.786 35.7332 200.655 33.9307C201.918 31.313 203.629 29.953 205.853 29.8731C207.727 29.8057 209.299 30.7513 210.583 32.6581C211.51 34.0342 212.056 35.7189 212.269 37.6547C212.559 40.28 212.138 42.6552 211.069 44.727C210.098 46.6054 208.765 47.8076 207.141 48.2247C205.39 48.6746 203.767 48.1784 202.312 46.7036C201.861 46.2465 201.495 45.6138 201.066 45.0259Z" fill="#E3E4E6"/>
</svg>
