<svg width="81" height="19" viewBox="0 0 81 19" fill="none" xmlns="http://www.w3.org/2000/svg">
<path d="M70.0664 18.2988C69.3497 18.2988 68.7664 18.0809 68.3164 17.6452C67.8664 17.2094 67.6414 16.6396 67.6414 15.9357V0.70105H80.9914V3.71781H71.0914V7.79043H80.2414V10.8072H71.0914V15.2821H80.9914V18.2988H70.0664Z" fill="white"/>
<path d="M55.3692 18.2988C54.6358 18.2988 54.0442 18.0893 53.5942 17.6703C53.1608 17.2346 52.9442 16.6647 52.9442 15.9608V0.70105H56.3942V15.2821H65.8942V18.2988H55.3692Z" fill="white"/>
<path d="M41.0283 18.5C39.7117 18.5 38.545 18.2235 37.5283 17.6704C36.5283 17.1006 35.745 16.3128 35.1783 15.3073C34.6283 14.2849 34.3533 13.1034 34.3533 11.7626V7.23743C34.3533 5.89665 34.6283 4.72346 35.1783 3.71788C35.745 2.69553 36.5283 1.90782 37.5283 1.35475C38.545 0.784916 39.7117 0.5 41.0283 0.5H43.6783C44.995 0.5 46.1533 0.784916 47.1533 1.35475C48.17 1.90782 48.9533 2.69553 49.5033 3.71788C50.07 4.72346 50.3533 5.89665 50.3533 7.23743V11.7626C50.3533 13.1034 50.07 14.2849 49.5033 15.3073C48.9533 16.3128 48.17 17.1006 47.1533 17.6704C46.1533 18.2235 44.995 18.5 43.6783 18.5H41.0283ZM43.6783 15.433C44.645 15.433 45.42 15.081 46.0033 14.3771C46.6033 13.6732 46.9033 12.7514 46.9033 11.6117V7.38827C46.9033 6.2486 46.6033 5.32682 46.0033 4.6229C45.42 3.91899 44.645 3.56704 43.6783 3.56704H41.0283C40.0617 3.56704 39.2783 3.91899 38.6783 4.6229C38.095 5.32682 37.8033 6.2486 37.8033 7.38827V11.6117C37.8033 12.7514 38.095 13.6732 38.6783 14.3771C39.2783 15.081 40.0617 15.433 41.0283 15.433H43.6783Z" fill="white"/>
<path d="M22.9375 18.5C21.6208 18.5 20.4542 18.2235 19.4375 17.6704C18.4375 17.1006 17.6542 16.3128 17.0875 15.3073C16.5375 14.2849 16.2625 13.1034 16.2625 11.7626V7.23743C16.2625 5.89665 16.5375 4.72346 17.0875 3.71788C17.6542 2.69553 18.4375 1.90782 19.4375 1.35475C20.4542 0.784916 21.6208 0.5 22.9375 0.5H25.5875C26.9042 0.5 28.0625 0.784916 29.0625 1.35475C30.0792 1.90782 30.8625 2.69553 31.4125 3.71788C31.9792 4.72346 32.2625 5.89665 32.2625 7.23743V11.7626C32.2625 13.1034 31.9792 14.2849 31.4125 15.3073C30.8625 16.3128 30.0792 17.1006 29.0625 17.6704C28.0625 18.2235 26.9042 18.5 25.5875 18.5H22.9375ZM25.5875 15.433C26.5542 15.433 27.3292 15.081 27.9125 14.3771C28.5125 13.6732 28.8125 12.7514 28.8125 11.6117V7.38827C28.8125 6.2486 28.5125 5.32682 27.9125 4.6229C27.3292 3.91899 26.5542 3.56704 25.5875 3.56704H22.9375C21.9708 3.56704 21.1875 3.91899 20.5875 4.6229C20.0042 5.32682 19.7125 6.2486 19.7125 7.38827V11.6117C19.7125 12.7514 20.0042 13.6732 20.5875 14.3771C21.1875 15.081 21.9708 15.433 22.9375 15.433H25.5875Z" fill="white"/>
<path d="M0.453918 0.70105H9.67892C10.6956 0.70105 11.5956 0.902167 12.3789 1.3044C13.1623 1.68988 13.7706 2.25133 14.2039 2.98876C14.6373 3.70943 14.8539 4.53904 14.8539 5.47759V7.81558C14.8539 8.78764 14.6289 9.65077 14.1789 10.405C13.7289 11.1424 13.0956 11.7206 12.2789 12.1396C11.4789 12.5418 10.5456 12.7429 9.47892 12.7429H3.90392V18.2988H0.453918V0.70105ZM9.42892 9.72619C10.0123 9.72619 10.4873 9.54183 10.8539 9.17312C11.2206 8.78764 11.4039 8.28485 11.4039 7.66474V5.62842C11.4039 5.04183 11.2373 4.58094 10.9039 4.24574C10.5873 3.89379 10.1623 3.71781 9.62892 3.71781H3.90392V9.72619H9.42892Z" fill="white"/>
</svg>
