<svg width="194" height="63" viewBox="0 0 194 63" fill="none" xmlns="http://www.w3.org/2000/svg">
<path d="M15.5768 13.9206H27.2641C30.7046 13.9206 33.3843 14.6997 35.2515 16.2619C37.1395 17.8242 38.0869 20.0637 38.0869 22.9963C38.0869 24.672 37.7484 26.1246 37.0703 27.3423C36.3926 28.5756 35.3933 29.5505 34.0655 30.2748C35.8981 30.9639 37.302 32.0563 38.284 33.5519C39.2591 35.0476 39.7431 36.8643 39.7431 38.9942C39.7431 41.0967 39.2694 42.9056 38.3255 44.3973C37.3815 45.9086 36.033 47.0754 34.2799 47.8976C32.5303 48.7198 30.4418 49.1309 27.9868 49.1309H15.5734L15.5768 13.9206ZM0.0169067 62.8619H55.3411V0.217041H0.0169067V62.8619ZM26.6763 19.7936C30.0337 19.7936 31.7246 21.1913 31.7246 23.9829C31.7246 25.4277 31.2958 26.5553 30.4349 27.3579C29.5739 28.1645 28.3256 28.5638 26.7005 28.5638H21.9288V19.7936H26.6763ZM27.4785 34.0844H21.8769V43.5986H27.3747C29.2627 43.5986 30.7184 43.1953 31.7315 42.3927C32.7481 41.5861 33.2564 40.4311 33.2564 38.9198C33.2564 35.7014 31.3235 34.104 27.4473 34.104L27.4785 34.0844Z" fill="#E3E4E6"></path>
<path d="M84.7321 13.9206H96.4193C99.8598 13.9206 102.54 14.6997 104.407 16.2619C106.295 17.8242 107.242 20.0637 107.242 22.9963C107.242 24.672 106.904 26.1246 106.226 27.3423C105.548 28.5756 104.545 29.5505 103.221 30.2748C105.053 30.9639 106.457 32.0563 107.439 33.5519C108.414 35.0476 108.898 36.8643 108.898 38.9942C108.898 41.0967 108.425 42.9056 107.481 44.3973C106.537 45.9086 105.188 47.0754 103.435 47.8976C101.686 48.7198 99.597 49.1309 97.142 49.1309H84.7287L84.7321 13.9206ZM69.1722 62.8619H124.496V0.217041H69.1722V62.8619ZM95.8315 19.7936C99.189 19.7936 100.88 21.1913 100.88 23.9829C100.88 25.4277 100.451 26.5553 99.5901 27.3579C98.7291 28.1645 97.4809 28.5638 95.8557 28.5638H91.084V19.7936H95.8315ZM96.6337 34.0844H91.0322V43.5986H96.53C98.4179 43.5986 99.8737 43.1953 100.887 42.3927C101.903 41.5861 102.412 40.4311 102.412 38.9198C102.412 35.7014 100.479 34.104 96.6026 34.104L96.6337 34.0844Z" fill="#E3E4E6"></path>
<path d="M173.597 48.7667C175.294 48.3007 176.788 47.6625 178.092 46.8599V40.1647C175.37 42.0637 172.386 43.0151 169.171 43.0151C167.061 43.0151 165.263 42.5648 163.777 41.6643C162.297 40.7638 161.169 39.4522 160.395 37.7099C159.617 35.9871 159.23 33.9003 159.23 31.4454C159.23 28.9983 159.631 26.9036 160.436 25.22C161.242 23.513 162.397 22.2092 163.894 21.3086C165.402 20.4081 167.224 19.9579 169.357 19.9579C170.91 19.9579 172.39 20.192 173.783 20.6587C175.187 21.1246 176.491 21.8098 177.691 22.7103V15.8586C176.373 15.0872 174.945 14.4999 173.403 14.0967C171.864 13.6934 170.232 13.4937 168.493 13.4937C166.003 13.4937 163.756 13.9126 161.75 14.7505C159.745 15.5884 158.016 16.7943 156.598 18.3722C155.163 19.95 154.064 21.8411 153.303 24.0494C152.542 26.2537 152.162 28.7086 152.162 31.4493C152.162 34.2526 152.528 36.7741 153.262 39.0058C153.995 41.2454 155.046 43.1169 156.425 44.683C157.802 46.2295 159.485 47.412 161.474 48.2342C163.465 49.0564 165.692 49.4675 168.182 49.4675C170.056 49.4675 171.847 49.2334 173.541 48.7667H173.597ZM193.652 62.7834H138.327V0.138611H193.652V62.7834Z" fill="#E3E4E6"></path>
</svg>
