<svg width="130" height="63" viewBox="0 0 130 63" fill="none" xmlns="http://www.w3.org/2000/svg">
<path d="M0.310303 8.37007C0.310303 3.84322 3.61998 0.138672 8.93833 0.138672C14.5376 0.138672 17.5397 4.02508 17.5397 8.5901C17.5397 13.6102 13.7463 16.6532 8.9784 16.6532C3.78906 16.6532 0.310303 13.2231 0.310303 8.37007Z" fill="#E3E4E6"></path>
<path d="M0.357544 23.5335C0.357544 22.763 0.803434 22.206 1.69367 22.206H16.229C16.9969 22.206 17.5045 22.7957 17.5045 23.5205V45.114C17.5045 48.7956 19.6678 53.0774 26.3443 53.0774C32.8466 53.0774 36.2103 49.1568 36.2103 41.1521V39.4693L43.1136 52.201L44.0044 56.5168C44.0044 56.5168 37.2313 62.8619 24.9553 62.8619C18.8622 62.8619 0.357544 61.8933 0.357544 42.2746V23.5335Z" fill="#E3E4E6"></path>
<path d="M44.0011 56.5086L50.9045 39.2453L53.1313 37.0874V40.1085C53.1313 47.375 56.7692 52.9656 66.1823 52.9656C74.7655 52.9656 80.8072 48.2539 80.8072 40.9421C80.8072 37.2256 78.9507 34.2767 78.9507 34.2767L88.6873 38.9878L89.5408 50.4664C89.5408 50.4664 83.057 62.789 64.7799 62.789C50.5079 62.789 44.0011 56.5086 44.0011 56.5086Z" fill="#E3E4E6"></path>
<path d="M44.0003 56.5054C44.0003 56.5054 36.2062 50.7338 36.2062 39.9415V9.03134C36.2062 6.54584 37.8613 4.39197 44.7618 4.39197C52.3029 4.39197 53.1305 7.23642 53.1305 9.37045V22.1946H66.4918C67.4558 22.1946 67.8279 22.7407 67.8279 23.6059V31.2578C67.8279 31.9814 67.5233 32.5526 66.6468 32.5526H57.8069C55.5146 32.5526 53.1305 31.6894 53.1305 31.6894V36.8684C53.1305 43.3259 51.4085 49.9219 44.0003 56.5054Z" fill="#E3E4E6"></path>
<path d="M89.5399 50.4602L91.6615 27.8722L92.6201 23.9415C92.6201 23.9415 96.8542 29.9237 107.641 49.1682C114.492 37.0977 118.861 22.674 118.861 22.674C119.167 21.6881 119.98 21.4494 121.156 21.7497L128.55 23.9644C129.448 24.2749 129.935 24.6186 129.43 26.2363C123.279 43.5817 113.648 57.8897 113.648 57.8897C111.793 60.5526 109.904 62.8133 103.646 62.8133C98.5972 62.8133 96.8389 61.1469 95.0803 58.6036L89.5399 50.4602Z" fill="#E3E4E6"></path>
<path d="M89.5415 50.4668L78.0134 32.8644C77.3216 31.6098 76.7943 30.849 76.7943 29.359C76.8032 27.1688 77.9775 25.5853 81.9597 23.1676C82.8201 22.6197 85.9215 21.4252 88.4343 21.4252C91.8229 21.4252 94.351 24.8239 94.351 31.9345C94.351 43.5042 89.5415 50.4668 89.5415 50.4668Z" fill="#E3E4E6"></path>
</svg>
