<svg width="74" height="73" viewBox="0 0 74 73" fill="none" xmlns="http://www.w3.org/2000/svg">
<path d="M71.7263 18.1721L55.0817 1.52741C54.5975 1.04316 54.0226 0.659038 53.39 0.396963C52.7573 0.134889 52.0792 0 51.3944 0C50.7097 0 50.0316 0.134889 49.3989 0.396963C48.7663 0.659038 48.1914 1.04316 47.7072 1.52741L1.77704 47.4539C1.29187 47.9373 0.907168 48.5121 0.645089 49.1449C0.38301 49.7777 0.248738 50.4561 0.250009 51.1411V67.7857C0.250009 69.1686 0.799367 70.4949 1.77723 71.4728C2.75509 72.4506 4.08136 73 5.46427 73H68.0354C68.6281 73 69.1965 72.7646 69.6155 72.3455C70.0346 71.9264 70.2701 71.358 70.2701 70.7653C70.2701 70.1726 70.0346 69.6042 69.6155 69.1852C69.1965 68.7661 68.6281 68.5306 68.0354 68.5306H28.7385L71.7263 25.5465C72.2106 25.0623 72.5947 24.4875 72.8568 23.8548C73.1189 23.2222 73.2537 22.5441 73.2537 21.8593C73.2537 21.1745 73.1189 20.4964 72.8568 19.8638C72.5947 19.2311 72.2106 18.6563 71.7263 18.1721ZM16.0753 60.3368L48.6681 27.7402L55.9383 35.0104L23.3417 67.6032L16.0753 60.3368ZM12.9132 57.1785L5.64677 49.9083L38.2396 17.3154L45.5098 24.5819L12.9132 57.1785ZM4.71937 67.7857V55.3013L17.9487 68.5306H5.46427C5.26671 68.5306 5.07724 68.4522 4.93755 68.3125C4.79785 68.1728 4.71937 67.9833 4.71937 67.7857ZM68.5643 22.3844L59.0966 31.8521L41.4017 14.1534L50.8656 4.68949C50.9347 4.62023 51.0169 4.56528 51.1073 4.5278C51.1978 4.49031 51.2947 4.47102 51.3926 4.47102C51.4905 4.47102 51.5874 4.49031 51.6778 4.5278C51.7683 4.56528 51.8504 4.62023 51.9196 4.68949L68.5643 21.3304C68.6335 21.3996 68.6885 21.4818 68.7259 21.5722C68.7634 21.6626 68.7827 21.7595 68.7827 21.8574C68.7827 21.9553 68.7634 22.0523 68.7259 22.1427C68.6885 22.2331 68.6335 22.3153 68.5643 22.3844Z" fill="url('#paint0_linear_62_3514')"></path>
<defs>
<linearGradient id="paint0_linear_62_3514" x1="36.7519" y1="0" x2="36.7519" y2="73" gradientUnits="userSpaceOnUse">
<stop stop-color="#B16CEA"></stop>
<stop offset="0.3" stop-color="#FF5E69"></stop>
<stop offset="0.67" stop-color="#FF8A56"></stop>
<stop offset="1" stop-color="#FFA84B"></stop>
</linearGradient>
</defs>
</svg>
