<svg width="82" height="79" viewBox="0 0 82 79" fill="none" xmlns="http://www.w3.org/2000/svg">
<path d="M81.206 70.3888C81.1419 70.2003 79.5843 65.7132 77.1101 60.7684C73.3676 53.2906 69.5356 48.7258 65.399 46.8138C65.3892 46.8095 57.861 43.4474 57.861 43.4474L54.5752 40.7789L49.3767 45.7579L52.5794 67.9727C52.5905 68.0423 52.5722 68.1132 52.5292 68.1698L49.2477 72.495C49.1955 72.5641 49.1123 72.6046 49.0235 72.6046C48.9346 72.6046 48.8513 72.5638 48.7993 72.495L45.5177 68.1698C45.475 68.1132 45.4568 68.0421 45.4676 67.9727L48.6616 45.8196L43.4008 40.7791L40.1146 43.4476C40.1146 43.4476 25.5635 49.8581 20.4492 51.2454C21.2203 48.2189 22.3775 44.3633 23.6417 40.7297C24.6516 37.8264 23.0279 34.6832 20.0125 33.7106C16.9985 32.737 13.7338 34.3001 12.7236 37.2034C12.6621 37.3799 11.205 41.5764 9.92778 46.1216C7.50096 54.763 7.35452 58.3888 9.33056 61.0439C10.5307 62.6583 12.3955 63.5883 14.4428 63.5963H14.4843C17.8477 63.5963 24.1856 61.9924 30.7641 59.5847L30.7687 79H67.2049L67.2092 66.5489C68.4201 69.0698 69.3453 71.3892 69.8496 72.7194C69.6306 73.9101 69.115 76.1108 67.9713 79H80.1304C81.2462 75.319 81.4567 72.9562 81.487 72.5073C81.5376 71.7902 81.4417 71.0706 81.206 70.3888Z" fill="url('#paint0_linear_62_3504')"></path>
<path d="M48.9863 40.5562C57.4099 40.5562 63.695 32.9989 63.8377 20.3242C63.9303 11.5295 59.5805 6.26703 48.9863 6.26703C38.3925 6.26703 34.0437 11.5295 34.1377 20.3242C34.279 32.9989 40.5633 40.5562 48.9863 40.5562Z" fill="url('#paint1_linear_62_3504')"></path>
<path d="M10.8735 19.6201C11.6905 20.773 12.5359 21.9638 12.5878 23.5773L12.659 26.729C12.659 27.1997 13.0546 27.5815 13.5417 27.5815H14.0819C14.2489 28.4776 15.062 29.157 16.0404 29.157C17.0184 29.157 17.8303 28.4776 17.9973 27.5815H18.5383C19.0253 27.5815 19.4217 27.1997 19.4217 26.729L19.4963 23.5784C19.5478 21.9675 20.3919 20.7744 21.2089 19.6208C22.1854 18.2389 23.1983 16.8091 23.1986 14.2893C23.1986 10.6769 19.9876 7.73865 16.0402 7.73865C12.0924 7.73865 8.88135 10.6767 8.88135 14.2893C8.88135 16.8079 9.89417 18.2375 10.8735 19.6201ZM16.0398 21.4073L14.9418 15.3917C14.9166 15.2102 15.0211 15.0695 15.0679 15.0168C15.1558 14.9185 15.2725 14.8568 15.3669 14.8568C15.4868 14.8568 15.5792 14.9426 15.6236 14.9948C15.7262 15.1141 15.8778 15.1844 16.0398 15.1844C16.2011 15.1844 16.3519 15.1141 16.455 14.9948C16.4998 14.9426 16.5909 14.8568 16.7103 14.8568C16.8157 14.8568 16.9347 14.9166 17.0221 15.0144C17.0776 15.0756 17.163 15.2063 17.1374 15.391L16.0398 21.4073ZM16.0402 9.44206C19.0128 9.44206 21.4294 11.6169 21.4294 14.2895C21.4294 16.2837 20.65 17.385 19.746 18.6639C18.9953 19.7253 18.0847 21.0092 17.8085 22.7019L16.899 22.7017L18.2 15.5638C18.2006 15.5597 18.2013 15.5566 18.2019 15.5529C18.2704 15.1146 18.1391 14.6728 17.8407 14.3375C17.5508 14.0119 17.1287 13.8183 16.7103 13.8183C16.4752 13.8183 16.2457 13.8791 16.0398 13.993C15.8317 13.8791 15.6022 13.8183 15.3669 13.8183C14.9524 13.8183 14.5455 14.0078 14.2509 14.3385C13.9462 14.6796 13.8098 15.1223 13.8762 15.5515C13.8773 15.5552 13.8781 15.5593 13.8786 15.5636L15.179 22.7007L14.275 22.7005C13.999 21.0069 13.0859 19.7216 12.3332 18.6604C11.4309 17.3829 10.6493 16.2816 10.6493 14.2891C10.6493 11.6169 13.0682 9.44206 16.0402 9.44206Z" fill="url('#paint2_linear_62_3504')"></path>
<path d="M16.0402 6.1759C16.5035 6.1759 16.879 5.81415 16.879 5.36788L16.8788 0.808204C16.8788 0.361757 16.5035 0 16.0398 0C15.5764 0 15.2012 0.361936 15.2012 0.808204V5.36788C15.2012 5.59075 15.2948 5.79293 15.4466 5.93913C15.5985 6.08533 15.8076 6.1759 16.0402 6.1759Z" fill="url('#paint3_linear_62_3504')"></path>
<path d="M22.591 8.47252C22.8306 8.47252 23.0681 8.37445 23.2342 8.18386L26.2773 4.69073C26.5753 4.34895 26.5291 3.83903 26.174 3.55215C25.8189 3.26546 25.2891 3.31021 24.9919 3.652L21.9488 7.14512C21.6508 7.48691 21.6973 7.99665 22.0523 8.28352C22.2091 8.41065 22.4004 8.47252 22.591 8.47252Z" fill="url('#paint4_linear_62_3504')"></path>
<path d="M25.2512 13.6204C25.3232 14.0124 25.6772 14.2882 26.0765 14.2882C26.125 14.2882 26.1739 14.2843 26.2233 14.2758L30.8857 13.4836C31.3423 13.406 31.6468 12.9869 31.5666 12.5474C31.4859 12.1079 31.0499 11.8148 30.5943 11.892L25.9319 12.684C25.4754 12.7615 25.1705 13.1807 25.2512 13.6204Z" fill="url('#paint5_linear_62_3504')"></path>
<path d="M25.2864 19.393C24.8843 19.1696 24.3717 19.3024 24.1403 19.6888C23.9087 20.0751 24.0463 20.5693 24.4471 20.7924L28.5476 23.0722C28.6802 23.1457 28.8242 23.1806 28.9664 23.1806C29.2561 23.1806 29.5386 23.0359 29.6941 22.7763C29.9255 22.3899 29.7881 21.8957 29.3868 21.6724L25.2864 19.393Z" fill="url('#paint6_linear_62_3504')"></path>
<path d="M7.939 19.6886C7.7074 19.3021 7.19442 19.1696 6.79288 19.3928L2.69307 21.6726C2.29172 21.8959 2.15436 22.3901 2.38595 22.7766C2.54108 23.0359 2.82359 23.1808 3.1135 23.1808C3.25586 23.1808 3.40026 23.1459 3.53262 23.0724L7.63224 20.7926C8.03304 20.5694 8.17096 20.075 7.939 19.6886Z" fill="url('#paint7_linear_62_3504')"></path>
<path d="M6.00259 14.2879C6.40228 14.2879 6.75587 14.0119 6.82788 13.6198C6.9086 13.1803 6.60351 12.7613 6.14699 12.6838L1.48458 11.8921C1.02825 11.8148 0.593387 12.1082 0.512857 12.5477C0.432512 12.9872 0.737045 13.4064 1.19394 13.4839L5.85579 14.2754C5.90521 14.2838 5.95409 14.2879 6.00259 14.2879Z" fill="url('#paint8_linear_62_3504')"></path>
<path d="M8.84497 8.18366C9.01084 8.3739 9.24854 8.47232 9.48809 8.47232H9.48865C9.67896 8.47232 9.87038 8.41027 10.0276 8.28333C10.3823 7.99628 10.4287 7.48672 10.1312 7.14475L7.08775 3.6518C6.78969 3.31019 6.26042 3.26544 5.90535 3.55232C5.72781 3.69584 5.62766 3.895 5.60877 4.10128C5.58971 4.30721 5.65302 4.52009 5.80168 4.69108L8.84497 8.18366Z" fill="url('#paint9_linear_62_3504')"></path>
<defs>
<linearGradient id="paint0_linear_62_3504" x1="44.7332" y1="33.4213" x2="44.7332" y2="79" gradientUnits="userSpaceOnUse">
<stop stop-color="#B16CEA"></stop>
<stop offset="0.3" stop-color="#FF5E69"></stop>
<stop offset="0.67" stop-color="#FF8A56"></stop>
<stop offset="1" stop-color="#FFA84B"></stop>
</linearGradient>
<linearGradient id="paint1_linear_62_3504" x1="48.9877" y1="6.26703" x2="48.9877" y2="40.5562" gradientUnits="userSpaceOnUse">
<stop stop-color="#B16CEA"></stop>
<stop offset="0.3" stop-color="#FF5E69"></stop>
<stop offset="0.67" stop-color="#FF8A56"></stop>
<stop offset="1" stop-color="#FFA84B"></stop>
</linearGradient>
<linearGradient id="paint2_linear_62_3504" x1="16.04" y1="7.73865" x2="16.04" y2="29.157" gradientUnits="userSpaceOnUse">
<stop stop-color="#B16CEA"></stop>
<stop offset="0.3" stop-color="#FF5E69"></stop>
<stop offset="0.67" stop-color="#FF8A56"></stop>
<stop offset="1" stop-color="#FFA84B"></stop>
</linearGradient>
<linearGradient id="paint3_linear_62_3504" x1="16.0401" y1="0" x2="16.0401" y2="6.1759" gradientUnits="userSpaceOnUse">
<stop stop-color="#B16CEA"></stop>
<stop offset="0.3" stop-color="#FF5E69"></stop>
<stop offset="0.67" stop-color="#FF8A56"></stop>
<stop offset="1" stop-color="#FFA84B"></stop>
</linearGradient>
<linearGradient id="paint4_linear_62_3504" x1="24.1131" y1="3.36328" x2="24.1131" y2="8.47252" gradientUnits="userSpaceOnUse">
<stop stop-color="#B16CEA"></stop>
<stop offset="0.3" stop-color="#FF5E69"></stop>
<stop offset="0.67" stop-color="#FF8A56"></stop>
<stop offset="1" stop-color="#FFA84B"></stop>
</linearGradient>
<linearGradient id="paint5_linear_62_3504" x1="28.4089" y1="11.8796" x2="28.4089" y2="14.2882" gradientUnits="userSpaceOnUse">
<stop stop-color="#B16CEA"></stop>
<stop offset="0.3" stop-color="#FF5E69"></stop>
<stop offset="0.67" stop-color="#FF8A56"></stop>
<stop offset="1" stop-color="#FFA84B"></stop>
</linearGradient>
<linearGradient id="paint6_linear_62_3504" x1="26.9172" y1="19.2845" x2="26.9172" y2="23.1806" gradientUnits="userSpaceOnUse">
<stop stop-color="#B16CEA"></stop>
<stop offset="0.3" stop-color="#FF5E69"></stop>
<stop offset="0.67" stop-color="#FF8A56"></stop>
<stop offset="1" stop-color="#FFA84B"></stop>
</linearGradient>
<linearGradient id="paint7_linear_62_3504" x1="5.16254" y1="19.2844" x2="5.16254" y2="23.1808" gradientUnits="userSpaceOnUse">
<stop stop-color="#B16CEA"></stop>
<stop offset="0.3" stop-color="#FF5E69"></stop>
<stop offset="0.67" stop-color="#FF8A56"></stop>
<stop offset="1" stop-color="#FFA84B"></stop>
</linearGradient>
<linearGradient id="paint8_linear_62_3504" x1="3.67042" y1="11.8798" x2="3.67042" y2="14.2879" gradientUnits="userSpaceOnUse">
<stop stop-color="#B16CEA"></stop>
<stop offset="0.3" stop-color="#FF5E69"></stop>
<stop offset="0.67" stop-color="#FF8A56"></stop>
<stop offset="1" stop-color="#FFA84B"></stop>
</linearGradient>
<linearGradient id="paint9_linear_62_3504" x1="7.96633" y1="3.36328" x2="7.96633" y2="8.47232" gradientUnits="userSpaceOnUse">
<stop stop-color="#B16CEA"></stop>
<stop offset="0.3" stop-color="#FF5E69"></stop>
<stop offset="0.67" stop-color="#FF8A56"></stop>
<stop offset="1" stop-color="#FFA84B"></stop>
</linearGradient>
</defs>
</svg>
