<svg width="105" height="73" viewBox="0 0 105 73" fill="none" xmlns="http://www.w3.org/2000/svg">
<path d="M89.0215 31.9892C88.7139 31.8975 88.3801 31.9241 88.0934 32.0632C87.8068 32.2022 87.5908 32.4423 87.493 32.7306C87.3952 33.0189 87.4236 33.3318 87.572 33.6004C87.7203 33.8691 87.9765 34.0715 88.284 34.1632C97.7956 37.0034 102.038 41.2397 102.038 47.9055C102.038 53.8345 96.2671 58.4358 92.8305 60.6532C92.6677 60.7579 92.5346 60.8982 92.4426 61.062C92.3505 61.2257 92.3024 61.408 92.3023 61.5931V70.3143C89.38 69.2754 86.7695 67.5886 84.6941 65.3982C84.5533 65.2513 84.3746 65.1408 84.1752 65.0773C83.9757 65.0138 83.7622 64.9994 83.555 65.0355C82.8614 65.1609 82.1531 65.3389 81.4352 65.5191C80.1939 65.8316 78.9137 66.1556 77.6992 66.1556C71.449 66.1556 67.0729 64.8963 62.5995 61.8143C62.3394 61.6349 62.0139 61.5598 61.6946 61.6053C61.3753 61.6509 61.0884 61.8135 60.897 62.0573C60.7056 62.3011 60.6254 62.6062 60.674 62.9055C60.7226 63.2047 60.8961 63.4736 61.1562 63.653C66.0897 67.0521 70.8819 68.4368 77.6992 68.4368C79.2349 68.4368 80.6758 68.0741 82.068 67.7228C82.5012 67.611 82.932 67.5015 83.3579 67.408C87.9068 71.9112 93.052 72.9355 93.2759 72.9765C93.4527 73.011 93.6354 73.0077 93.8107 72.9671C93.9859 72.9264 94.1492 72.8493 94.2884 72.7416C94.4284 72.6349 94.5413 72.5003 94.6188 72.3476C94.6962 72.1949 94.7364 72.0278 94.7362 71.8587V62.1885C101.02 57.9887 104.472 52.9334 104.472 47.9055C104.472 40.1926 99.5625 35.135 89.0215 31.9892Z" fill="url('#paint0_linear_62_3519')"></path>
<path d="M80.5674 30.797C80.5674 13.2404 63.4865 0 40.8395 0C18.078 0 0.25 13.5301 0.25 30.8015C0.25 41.1562 8.06512 48.5748 14.8532 53.0643V68.2028C14.8544 68.3928 14.9061 68.5795 15.0036 68.7461C15.101 68.9127 15.2411 69.054 15.4114 69.1572C15.5816 69.2604 15.7765 69.3223 15.9786 69.3373C16.1807 69.3522 16.3836 69.3199 16.569 69.243C16.9244 69.0947 25.2311 65.5565 32.338 58.2724C35.4168 58.8085 38.8997 59.3241 42.0588 59.3241C65.0905 59.3241 80.5674 47.8585 80.5674 30.797ZM42.0564 57.0428C38.8681 57.0428 35.244 56.4703 32.119 55.9113C31.9119 55.8757 31.6985 55.8903 31.4991 55.9538C31.2997 56.0173 31.121 56.1275 30.9799 56.2741C25.9905 61.5483 20.1273 64.8995 17.287 66.3435V52.4689C17.2869 52.2839 17.2388 52.1016 17.1468 51.9378C17.0548 51.7741 16.9216 51.6338 16.7589 51.529C10.3383 47.3886 2.68386 40.4353 2.68386 30.8015C2.68386 14.8076 19.4434 2.28126 40.8395 2.28126C62.1017 2.28126 78.1335 14.5407 78.1335 30.797C78.1335 46.4966 63.635 57.0428 42.0564 57.0428Z" fill="url('#paint1_linear_62_3519')"></path>
<path d="M40.4086 26.2344C37.7241 26.2344 35.5409 28.2807 35.5409 30.797C35.5409 33.3132 37.7241 35.3595 40.4086 35.3595C43.0932 35.3595 45.2764 33.3132 45.2764 30.797C45.2764 28.2807 43.0932 26.2344 40.4086 26.2344ZM40.4086 33.0782C39.782 33.0519 39.1903 32.8001 38.7567 32.3752C38.3232 31.9502 38.0812 31.3849 38.0812 30.797C38.0812 30.209 38.3232 29.6437 38.7567 29.2187C39.1903 28.7938 39.782 28.542 40.4086 28.5157C41.0353 28.542 41.627 28.7938 42.0606 29.2187C42.4941 29.6437 42.7361 30.209 42.7361 30.797C42.7361 31.3849 42.4941 31.9502 42.0606 32.3752C41.627 32.8001 41.0353 33.0519 40.4086 33.0782ZM57.4457 26.2344C54.7611 26.2344 52.5779 28.2807 52.5779 30.797C52.5779 33.3132 54.7611 35.3595 57.4457 35.3595C60.1302 35.3595 62.3134 33.3132 62.3134 30.797C62.3134 28.2807 60.1302 26.2344 57.4457 26.2344ZM57.4457 33.0782C56.819 33.0519 56.2273 32.8001 55.7937 32.3752C55.3602 31.9502 55.1182 31.3849 55.1182 30.797C55.1182 30.209 55.3602 29.6437 55.7937 29.2187C56.2273 28.7938 56.819 28.542 57.4457 28.5157C58.0723 28.542 58.664 28.7938 59.0976 29.2187C59.5311 29.6437 59.7731 30.209 59.7731 30.797C59.7731 31.3849 59.5311 31.9502 59.0976 32.3752C58.664 32.8001 58.0723 33.0519 57.4457 33.0782ZM23.3716 26.4512C20.6871 26.4512 18.5039 28.4974 18.5039 31.0137C18.5039 33.5299 20.6871 35.5762 23.3716 35.5762C26.0562 35.5762 28.2393 33.5299 28.2393 31.0137C28.2393 28.4974 26.0562 26.4512 23.3716 26.4512ZM23.3716 33.2949C22.745 33.2687 22.1532 33.0168 21.7197 32.5919C21.2862 32.1669 21.0442 31.6016 21.0442 31.0137C21.0442 30.4257 21.2862 29.8604 21.7197 29.4355C22.1532 29.0105 22.745 28.7587 23.3716 28.7324C23.9983 28.7587 24.59 29.0105 25.0235 29.4355C25.4571 29.8604 25.699 30.4257 25.699 31.0137C25.699 31.6016 25.4571 32.1669 25.0235 32.5919C24.59 33.0168 23.9983 33.2687 23.3716 33.2949Z" fill="url('#paint2_linear_62_3519')"></path>
<defs>
<linearGradient id="paint0_linear_62_3519" x1="82.5659" y1="31.9355" x2="82.5659" y2="73.0002" gradientUnits="userSpaceOnUse">
<stop stop-color="#B16CEA"></stop>
<stop offset="0.3" stop-color="#FF5E69"></stop>
<stop offset="0.67" stop-color="#FF8A56"></stop>
<stop offset="1" stop-color="#FFA84B"></stop>
</linearGradient>
<linearGradient id="paint1_linear_62_3519" x1="40.4087" y1="0" x2="40.4087" y2="69.3408" gradientUnits="userSpaceOnUse">
<stop stop-color="#B16CEA"></stop>
<stop offset="0.3" stop-color="#FF5E69"></stop>
<stop offset="0.67" stop-color="#FF8A56"></stop>
<stop offset="1" stop-color="#FFA84B"></stop>
</linearGradient>
<linearGradient id="paint2_linear_62_3519" x1="40.4086" y1="26.2344" x2="40.4086" y2="35.5762" gradientUnits="userSpaceOnUse">
<stop stop-color="#B16CEA"></stop>
<stop offset="0.3" stop-color="#FF5E69"></stop>
<stop offset="0.67" stop-color="#FF8A56"></stop>
<stop offset="1" stop-color="#FFA84B"></stop>
</linearGradient>
</defs>
</svg>
